# xmcd CD database file
#
# Track frame offsets:
#	150
#	14000
#	27755
#	43505
#	57125
#	74290
#	87335
#	103155
#	113520
#	127705
#	143665
#	156585
#
# Disc length: 2325 seconds
#
# Revision: 1
# Processed by: cddbd v1.5.1PL0 Copyright (c) Steve Scherf et al.
# Submitted via: CDex 1.51
#
DISCID=9909130c
DTITLE=Kari Tapio - Myrskyn j‰lkeen
DYEAR=1995
DGENRE=
TTITLE0=El‰m‰lt‰ kaiken sain
TTITLE1=Myrskyn j‰lkeen
TTITLE2=Ei eksy taivaan lintukaan
TTITLE3=Silm‰nurkkaa vastatuuli kostuttaa
TTITLE4=Viimeinen valssi
TTITLE5=Minne tuuli vaeltaa
TTITLE6=Tuoksusi sun
TTITLE7=T‰n‰‰n kihlajaiset sek‰ h‰‰t
TTITLE8=T‰hti ja meripoika
TTITLE9=Oot paras yst‰v‰in
TTITLE10=Kauniit kuolleet tunteet
TTITLE11=Toit p‰‰lle maan s‰ taivaan
EXTD=YEAR: 1995
EXTT0=
EXTT1=
EXTT2=
EXTT3=
EXTT4=
EXTT5=
EXTT6=
EXTT7=
EXTT8=
EXTT9=
EXTT10=
EXTT11=
PLAYORDER=
